<svg width="60" height="60" viewBox="0 0 60 60" fill="none" xmlns="http://www.w3.org/2000/svg">
<rect x="1.5" y="1.5" width="57" height="57" rx="8.5" fill="white" stroke="#35405A" stroke-width="3"/>
<path d="M16.8625 13.2C15.7139 14.6848 15.7139 16.6773 15.7139 20.6667V27.1243C16.9425 27.0667 18.3254 27.0667 19.814 27.0667H40.1854C41.6711 27.0667 43.0569 27.0667 44.2854 27.1243V20.6667C44.2854 16.6773 44.2854 14.6848 43.1369 13.2C42.3846 12.2272 41.3026 11.4193 39.9997 10.8576C38.0111 10 35.3426 10 29.9997 10C24.6568 10 21.9882 10 19.9997 10.8576C18.6967 11.4193 17.6148 12.2272 16.8625 13.2ZM13.5711 37.7141C12.1368 37.6715 11.2682 37.5264 10.6739 37.0421C9.82535 36.3509 9.93678 35.3909 10.1596 33.4688C10.3168 32.0821 10.6768 31.1477 11.4939 30.4501C12.9568 29.2 15.3082 29.2 20.0139 29.2H39.9854C44.6911 29.2 47.0426 29.2 48.5054 30.4501C49.3226 31.1456 49.6826 32.08 49.8426 33.4688C50.0626 35.3888 50.174 36.3509 49.3254 37.0421C48.7312 37.5264 47.8626 37.6715 46.4283 37.7141V48.4C46.4283 48.8243 46.2025 49.2313 45.8007 49.5314C45.3988 49.8314 44.8538 50 44.2854 50C43.7171 50 43.1721 49.8314 42.7702 49.5314C42.3683 49.2313 42.1426 48.8243 42.1426 48.4V37.7333H17.8568V48.4C17.8568 48.8243 17.631 49.2313 17.2292 49.5314C16.8273 49.8314 16.2823 50 15.7139 50C15.1456 50 14.6006 49.8314 14.1987 49.5314C13.7968 49.2313 13.5711 48.8243 13.5711 48.4V37.712V37.7141Z" fill="#35405A"/>
</svg>
